<svg width="16" height="16" viewBox="0 0 16 16" fill="none" xmlns="http://www.w3.org/2000/svg">
<path fill-rule="evenodd" clip-rule="evenodd" d="M11.0347 14.7553C10.0747 14.72 7.35402 14.344 4.50469 11.4953C1.65602 8.64599 1.28069 5.92599 1.24469 4.96532C1.19135 3.50132 2.31269 2.07932 3.60802 1.52399C3.764 1.45664 3.93482 1.43099 4.10371 1.44957C4.27259 1.46816 4.43375 1.53033 4.57135 1.62999C5.63802 2.40732 6.37402 3.58332 7.00602 4.50799C7.14508 4.71114 7.20453 4.95836 7.17306 5.20252C7.14158 5.44669 7.02138 5.67074 6.83535 5.83199L5.53469 6.79799C5.47185 6.84337 5.42762 6.91001 5.4102 6.98554C5.39279 7.06107 5.40339 7.14035 5.44002 7.20866C5.73469 7.74399 6.25869 8.54132 6.85869 9.14132C7.45869 9.74132 8.29402 10.3 8.86669 10.628C8.93849 10.6683 9.023 10.6796 9.10286 10.6595C9.18271 10.6394 9.25184 10.5895 9.29602 10.52L10.1427 9.23132C10.2983 9.02456 10.528 8.88604 10.7835 8.84478C11.039 8.80352 11.3005 8.86273 11.5134 9.00999C12.4514 9.65932 13.546 10.3827 14.3474 11.4087C14.4551 11.5473 14.5236 11.7123 14.5458 11.8864C14.568 12.0606 14.543 12.2375 14.4734 12.3987C13.9154 13.7007 12.5034 14.8093 11.0347 14.7553Z" fill="#8FCEFD"/>
</svg>
