<svg width="151" height="151" viewBox="0 0 151 151" fill="none" xmlns="http://www.w3.org/2000/svg">
<g clip-path="url(#clip0_221_4189)">
<path d="M33.1823 66.0625C39.7152 66.0625 46.1015 67.9997 51.5334 71.6293C56.9654 75.2588 61.1991 80.4176 63.6991 86.4532C66.1992 92.4889 66.8533 99.1304 65.5788 105.538C64.3043 111.945 61.1584 117.831 56.5389 122.45C51.9194 127.07 46.0338 130.216 39.6263 131.49C33.2189 132.765 26.5774 132.111 20.5417 129.611C14.5061 127.111 9.34729 122.877 5.71777 117.445C2.08825 112.013 0.151 105.627 0.151 99.0938L0 94.375C0 76.8541 6.96014 60.0509 19.3493 47.6618C31.7384 35.2726 48.5416 28.3125 66.0625 28.3125V47.1875C59.863 47.1708 53.7217 48.3833 47.9938 50.7549C42.2658 53.1264 37.0648 56.6099 32.6915 61.004C30.9915 62.7003 29.4235 64.5239 28.0011 66.4589C29.6935 66.1883 31.4174 66.0531 33.1728 66.0531L33.1823 66.0625ZM118.12 66.0625C124.653 66.0625 131.039 67.9997 136.471 71.6293C141.903 75.2588 146.137 80.4176 148.637 86.4532C151.137 92.4889 151.791 99.1304 150.516 105.538C149.242 111.945 146.096 117.831 141.476 122.45C136.857 127.07 130.971 130.216 124.564 131.49C118.156 132.765 111.515 132.111 105.479 129.611C99.4436 127.111 94.2848 122.877 90.6553 117.445C87.0257 112.013 85.0885 105.627 85.0885 99.0938L84.9375 94.375C84.9375 76.8541 91.8976 60.0509 104.287 47.6618C116.676 35.2726 133.479 28.3125 151 28.3125V47.1875C144.801 47.1708 138.659 48.3833 132.931 50.7549C127.203 53.1264 122.002 56.6099 117.629 61.004C115.929 62.7003 114.361 64.5239 112.939 66.4589C114.631 66.1883 116.358 66.0625 118.12 66.0625Z" fill="#C4CDDB" fill-opacity="0.25"/>
</g>
<defs>
<clipPath id="clip0_221_4189">
<rect width="151" height="151" fill="white"/>
</clipPath>
</defs>
</svg>
