<svg xmlns="http://www.w3.org/2000/svg" width="24" height="24" viewBox="0 0 24 24" fill="none">
<path d="M12.2493 16.4995C12.0506 16.4995 11.86 16.4206 11.7193 16.2802L8.21934 12.7802C8.07889 12.6395 8 12.4489 8 12.2502C8 12.0514 8.07889 11.8608 8.21934 11.7202H11.4993V4.75017C11.4993 4.55126 11.5784 4.36049 11.719 4.21984C11.8597 4.07919 12.0504 4.00017 12.2493 4.00017C12.4482 4.00017 12.639 4.07919 12.7797 4.21984C12.9203 4.36049 12.9993 4.55126 12.9993 4.75017V11.7202H16.2793C16.4198 11.8608 16.4987 12.0514 16.4987 12.2502C16.4987 12.4489 16.4198 12.6395 16.2793 12.7802L12.7793 16.2802C12.6387 16.4206 12.4481 16.4995 12.2493 16.4995Z" fill="currentColor"/>
<path d="M19.75 15C19.9489 15 20.1397 15.079 20.2803 15.2197C20.421 15.3603 20.5 15.5511 20.5 15.75V16.75C20.5 17.7446 20.1049 18.6984 19.4017 19.4017C18.6984 20.1049 17.7446 20.5 16.75 20.5H6.75C5.75544 20.5 4.80161 20.1049 4.09835 19.4017C3.39509 18.6984 3 17.7446 3 16.75V15.754C3 15.5551 3.07902 15.3643 3.21967 15.2237C3.36032 15.083 3.55109 15.004 3.75 15.004C3.94891 15.004 4.13968 15.083 4.28033 15.2237C4.42098 15.3643 4.5 15.5551 4.5 15.754V16.75C4.5 17.3467 4.73705 17.919 5.15901 18.341C5.58097 18.7629 6.15326 19 6.75 19H16.75C17.3467 19 17.919 18.7629 18.341 18.341C18.7629 17.919 19 17.3467 19 16.75V15.75C19 15.5511 19.079 15.3603 19.2197 15.2197C19.3603 15.079 19.5511 15 19.75 15Z" fill="currentColor"/>
</svg>
