<svg width="16" height="16" viewBox="0 0 16 16" fill="none" xmlns="http://www.w3.org/2000/svg">
<path d="M7.15398 3.38192C7.43503 3.34938 7.71773 3.33313 8.00065 3.33325C11.11 3.33325 13.6007 5.26859 14.6673 7.99992C14.4091 8.66429 14.0602 9.28977 13.6307 9.85859M4.34732 4.34592C2.98732 5.17592 1.93398 6.46192 1.33398 7.99992C2.40065 10.7313 4.89132 12.6666 8.00065 12.6666C9.28874 12.6734 10.5534 12.3226 11.654 11.6533M6.58732 6.58659C6.40159 6.77232 6.25425 6.99282 6.15374 7.23549C6.05322 7.47816 6.00148 7.73825 6.00148 8.00092C6.00148 8.26359 6.05322 8.52368 6.15374 8.76635C6.25425 9.00902 6.40159 9.22952 6.58732 9.41525C6.77305 9.60099 6.99355 9.74832 7.23622 9.84884C7.47889 9.94935 7.73899 10.0011 8.00165 10.0011C8.26432 10.0011 8.52441 9.94935 8.76708 9.84884C9.00975 9.74832 9.23025 9.60099 9.41598 9.41525" stroke="#ADB9CC" stroke-linecap="round" stroke-linejoin="round"/>
<path d="M2.66797 2.66663L13.3346 13.3333" stroke="#ADB9CC" stroke-linecap="round"/>
</svg>
