<svg width="16" height="17" viewBox="0 0 16 17" fill="none" xmlns="http://www.w3.org/2000/svg">
<path d="M8.00033 3.83334C4.371 3.83334 2.35433 6.65601 1.63766 7.91068C1.49033 8.16801 1.417 8.29734 1.42433 8.48934C1.433 8.68134 1.51966 8.80668 1.69233 9.05734C2.54566 10.296 4.863 13.1667 8.00033 13.1667C11.1377 13.1667 13.455 10.296 14.3083 9.05734C14.4817 8.80668 14.5683 8.68134 14.5757 8.48934C14.583 8.29734 14.5103 8.16801 14.363 7.91068C13.647 6.65601 11.6297 3.83334 8.00033 3.83334Z" stroke="#ADB9CC"/>
<path d="M8 10.5C9.10457 10.5 10 9.60457 10 8.5C10 7.39543 9.10457 6.5 8 6.5C6.89543 6.5 6 7.39543 6 8.5C6 9.60457 6.89543 10.5 8 10.5Z" stroke="#ADB9CC"/>
</svg>
