<svg width="24" height="24" viewBox="0 0 24 24" fill="none" xmlns="http://www.w3.org/2000/svg">
<rect width="24" height="24" rx="12" fill="#8FCEFD"/>
<path d="M15.5936 6.0106L8.40638 6.0106C7.08324 6.0106 6.01062 7.08322 6.01062 8.40636L6.01062 15.5936C6.01062 16.9168 7.08324 17.9894 8.40638 17.9894H11.1016L11.1016 14.3958L9.00532 14.3958V12.5989H11.1016V11.8802C11.1016 10.2924 12.3887 9.0053 13.9765 9.0053H14.9947L14.9947 10.8021H13.6171C13.2202 10.8021 12.8984 11.1239 12.8984 11.5208V12.5989H14.9947V14.3958H12.8984L12.8984 17.9894H15.5936C16.9168 17.9894 17.9894 16.9168 17.9894 15.5936V8.40636C17.9894 7.08322 16.9168 6.0106 15.5936 6.0106Z" fill="#1D3557"/>
</svg>
