<svg
  xmlns="http://www.w3.org/2000/svg"
  width="16"
  height="16"
  fill="none"
  class="social-icon"
  viewBox="0 0 16 16"
  data-v-3d4a5b90=""
>
  <path
    fill="currentColor"
    d="M11.594 2.01H4.406a2.396 2.396 0 0 0-2.395 2.396v7.188a2.396 2.396 0 0 0 2.395 2.395h2.696v-3.593H5.005V8.599h2.097V7.88a2.875 2.875 0 0 1 2.875-2.875h1.018v1.797H9.617a.72.72 0 0 0-.719.719v1.078h2.097v1.797H8.898v3.593h2.696a2.396 2.396 0 0 0 2.395-2.395V4.406a2.396 2.396 0 0 0-2.395-2.395"
  ></path>
</svg>
