<svg xmlns="http://www.w3.org/2000/svg" width="12" height="12" viewBox="0 0 12 12" fill="none">
  <path
    d="M9.59365 0.0106049L2.40638 0.0106049C1.08324 0.0106049 0.0106201 1.08322 0.0106201 2.40636L0.0106201 9.59363C0.0106201 10.9168 1.08324 11.9894 2.40638 11.9894L5.1016 11.9894L5.1016 8.39575L3.00532 8.39575L3.00532 6.59894H5.1016V5.88021C5.1016 4.29244 6.38874 3.0053 7.97651 3.0053H8.99471L8.99471 4.80212H7.61715C7.22021 4.80212 6.89842 5.1239 6.89842 5.52085V6.59894H8.99471V8.39575H6.89842L6.89842 11.9894H9.59365C10.9168 11.9894 11.9894 10.9168 11.9894 9.59363L11.9894 2.40636C11.9894 1.08322 10.9168 0.0106049 9.59365 0.0106049Z"
    fill="#1D3557"
  />
</svg>
