<svg width="16" height="16" viewBox="0 0 16 16" fill="none" xmlns="http://www.w3.org/2000/svg">
  <path
    d="M2.01074 5.60475C2.01059 3.62004 3.61951 2.01088 5.60422 2.01074L10.3952 2.01039C12.3799 2.01024 13.9891 3.61916 13.9893 5.60387L13.9896 10.3949C13.9898 12.3796 12.3808 13.9888 10.3961 13.9889L5.6051 13.9893C3.62039 13.9894 2.01123 12.3805 2.01109 10.3958L2.01074 5.60475ZM5.00505 8.00004C5.00518 9.65397 6.34647 10.9951 8.00039 10.9949C9.65421 10.9947 10.9944 9.65345 10.9943 7.9996C10.9941 6.34583 9.65371 5.00568 7.99995 5.00568C6.34609 5.0058 5.00503 6.3462 5.00505 8.00004ZM6.2033 7.99995C6.20332 7.00768 7.00775 6.20302 8.00004 6.20295C8.99226 6.20296 9.79687 7.00747 9.79705 7.99969C9.79712 8.99199 8.99258 9.79653 8.0003 9.7967C7.00795 9.79677 6.20337 8.99231 6.2033 7.99995ZM3.80752 4.40638C3.80755 4.73716 4.07542 5.00597 4.4062 5.00594C4.73695 5.00587 5.00481 4.73705 5.00479 4.40629C5.0046 4.07567 4.73676 3.80772 4.40611 3.8077C4.07543 3.80773 3.80766 4.07573 3.80752 4.40638Z"
    fill="currentColor"
  />
</svg>
