<svg width="24" height="24" viewBox="0 0 24 24" fill="none" xmlns="http://www.w3.org/2000/svg">
<rect width="24" height="24" rx="12" fill="#8FCEFD"/>
<path d="M6.01074 9.60475C6.01059 7.62004 7.61951 6.01088 9.60422 6.01074L14.3952 6.01039C16.3799 6.01024 17.9891 7.61916 17.9893 9.60387L17.9896 14.3949C17.9898 16.3796 16.3808 17.9888 14.3961 17.9889L9.6051 17.9893C7.62039 17.9894 6.01123 16.3805 6.01109 14.3958L6.01074 9.60475ZM9.00505 12C9.00518 13.654 10.3465 14.9951 12.0004 14.9949C13.6542 14.9947 14.9944 13.6535 14.9943 11.9996C14.9941 10.3458 13.6537 9.00568 12 9.00568C10.3461 9.0058 9.00503 10.3462 9.00505 12ZM10.2033 12C10.2033 11.0077 11.0077 10.203 12 10.2029C12.9923 10.203 13.7969 11.0075 13.797 11.9997C13.7971 12.992 12.9926 13.7965 12.0003 13.7967C11.0079 13.7968 10.2034 12.9923 10.2033 12ZM7.80752 8.40638C7.80755 8.73716 8.07542 9.00597 8.4062 9.00594C8.73695 9.00587 9.00481 8.73705 9.00479 8.40629C9.0046 8.07567 8.73676 7.80772 8.40611 7.8077C8.07543 7.80773 7.80766 8.07573 7.80752 8.40638Z" fill="#1D3557"/>
</svg>
