<svg width="56" height="56" viewBox="0 0 56 56" fill="none" xmlns="http://www.w3.org/2000/svg">
<rect width="56" height="56" rx="28" fill="white"/>
<path d="M31.5327 25.7242C32.7171 25.6483 33.9524 25.6484 35.1343 25.7242C38.9644 25.9701 42.0452 28.9608 42.2993 32.7526C42.3452 33.4378 42.3452 34.1464 42.2993 34.8317C42.2039 36.257 41.5665 37.5203 40.8862 38.5162C40.8517 38.5897 40.8292 38.7034 40.8618 38.8951C40.9 39.1194 41.0051 39.3916 41.1704 39.694L41.1938 39.7369C41.3131 39.9547 41.4505 40.2052 41.5327 40.4274C41.6225 40.6698 41.755 41.1581 41.4565 41.649C41.1919 42.0844 40.7764 42.2269 40.4976 42.2789C40.2754 42.3204 40.0117 42.326 39.8022 42.3307L39.7573 42.3317C38.5372 42.3603 37.6558 42.0181 36.9546 41.5192L36.8481 41.443C36.7846 41.4678 36.7123 41.4972 36.6274 41.5309C36.1537 41.7191 35.6222 41.8296 35.1343 41.861C33.9524 41.9368 32.7171 41.9369 31.5327 41.861C27.7023 41.6152 24.6217 38.6236 24.3677 34.8317C24.3218 34.1464 24.3218 33.4378 24.3677 32.7526C24.6218 28.9608 27.7025 25.97 31.5327 25.7242ZM24.5181 13.7584C26.3659 13.636 28.2973 13.6357 30.1489 13.7584C35.9568 14.1435 40.5676 18.8198 40.9468 24.6705C40.9743 25.0947 40.988 25.3072 40.9175 25.4176C40.8462 25.5291 40.739 25.5924 40.6069 25.6012C40.4762 25.6098 40.2779 25.4837 39.8823 25.2321C38.5308 24.3724 36.9514 23.8366 35.2622 23.7281C33.9951 23.6469 32.6745 23.6467 31.4048 23.7281C26.6073 24.0359 22.6959 27.7922 22.3726 32.6198C22.3207 33.3939 22.3207 34.1913 22.3726 34.9655C22.429 35.8075 22.5946 36.6172 22.855 37.3815C23.0503 37.9547 23.1472 38.2413 23.0366 38.4059C23.0003 38.4598 22.9442 38.5102 22.8862 38.5397C22.7094 38.6293 22.4167 38.488 21.8325 38.2057C21.831 38.2054 21.8201 38.2037 21.7437 38.2018C21.7161 38.2011 21.678 38.2049 21.6509 38.2106C21.5665 38.2284 21.5071 38.2716 21.3892 38.358L21.2739 38.443C20.2619 39.1872 18.9843 39.7085 17.1753 39.6647L17.1157 39.6627C16.7704 39.6545 16.3969 39.6455 16.0913 39.5865C15.7214 39.5152 15.2553 39.3356 14.9634 38.8395C14.6448 38.2978 14.7736 37.751 14.894 37.4147C15.0075 37.0981 15.2043 36.7283 15.4019 36.3551L15.4292 36.3014C16.0181 35.1884 16.1709 34.3006 15.8706 33.7184C14.8145 32.128 13.8605 30.1635 13.7192 27.983C13.6485 26.8914 13.6485 25.7622 13.7192 24.6705C14.0984 18.8197 18.7102 14.1434 24.5181 13.7584Z" fill="#6D8DB9"/>
</svg>
