<svg width="20" height="20" viewBox="0 0 20 20" fill="none" xmlns="http://www.w3.org/2000/svg">
<path d="M13.5044 1.44761C14.1765 0.790984 15.0804 0.425802 16.02 0.431274C16.9596 0.436746 17.8592 0.81243 18.5236 1.47684C19.188 2.14125 19.5637 3.04082 19.5692 3.98042C19.5746 4.92003 19.2095 5.82391 18.5528 6.49601L17.75 7.29881L12.7016 2.25041L13.5044 1.44761ZM11.8532 3.10001L2.25443 12.6988C1.86176 13.0921 1.58914 13.5891 1.46843 14.1316L0.41483 18.8716C0.392794 18.9702 0.396024 19.0728 0.424221 19.1699C0.452418 19.2669 0.504669 19.3553 0.576126 19.4267C0.647583 19.4982 0.735931 19.5504 0.832973 19.5786C0.930015 19.6068 1.03261 19.6101 1.13123 19.588L5.84243 18.5404C6.40378 18.4167 6.91777 18.1343 7.32323 17.7268L16.9016 8.14841L11.8532 3.10001Z" fill="#6D8DB9"/>
</svg>
