<svg width="28" height="28" viewBox="0 0 28 28" fill="none" xmlns="http://www.w3.org/2000/svg">
<rect x="28" y="-0.00267029" width="28" height="28" rx="14" transform="rotate(90.0042 28 -0.00267029)" fill="#8FCEFD"/>
<path fill-rule="evenodd" clip-rule="evenodd" d="M19.9883 10.1032C19.9883 11.2609 19.0498 12.1995 17.892 12.1995C17.2325 12.1995 16.644 11.8949 16.2598 11.4187C16.2463 11.4273 16.2322 11.4353 16.2175 11.4427L12.1821 13.4604C12.1676 13.4677 12.1528 13.4741 12.1379 13.4796C12.1798 13.6449 12.2021 13.818 12.2021 13.9963C12.2021 14.1746 12.1798 14.3477 12.1379 14.513C12.1528 14.5186 12.1676 14.525 12.1821 14.5322L16.2175 16.5499C16.2322 16.5573 16.2463 16.5653 16.2598 16.574C16.644 16.0977 17.2325 15.7931 17.892 15.7931C19.0498 15.7931 19.9883 16.7317 19.9883 17.8894C19.9883 19.0472 19.0498 19.9857 17.892 19.9857C16.7343 19.9857 15.7957 19.0472 15.7957 17.8894C15.7957 17.7111 15.818 17.538 15.8599 17.3727C15.845 17.3672 15.8303 17.3608 15.8157 17.3535L11.7803 15.3358C11.7656 15.3285 11.7516 15.3204 11.7381 15.3118C11.3538 15.788 10.7654 16.0926 10.1058 16.0926C8.94806 16.0926 8.00952 15.1541 8.00952 13.9963C8.00952 12.8386 8.94806 11.9 10.1058 11.9C10.7654 11.9 11.3538 12.2046 11.7381 12.6808C11.7516 12.6722 11.7656 12.6642 11.7803 12.6568L15.8157 10.6391C15.8303 10.6319 15.845 10.6254 15.8599 10.6199C15.818 10.4546 15.7957 10.2815 15.7957 10.1032C15.7957 8.94545 16.7343 8.00691 17.892 8.00691C19.0498 8.00691 19.9883 8.94545 19.9883 10.1032Z" fill="#1D3557"/>
</svg>
