<svg width="16" height="16" viewBox="0 0 16 16" fill="none" xmlns="http://www.w3.org/2000/svg">
  <path
    fill-rule="evenodd"
    clip-rule="evenodd"
    d="M13.9883 4.1032C13.9883 5.26095 13.0498 6.19949 11.892 6.19949C11.2325 6.19949 10.644 5.89488 10.2598 5.41866C10.2463 5.42732 10.2322 5.43535 10.2175 5.44268L6.18208 7.46039C6.16756 7.46766 6.15282 7.47406 6.13794 7.47962C6.17984 7.6449 6.2021 7.818 6.2021 7.99631C6.2021 8.17461 6.17984 8.34772 6.13794 8.51299C6.15282 8.51855 6.16756 8.52496 6.18208 8.53222L10.2175 10.5499C10.2322 10.5573 10.2463 10.5653 10.2598 10.574C10.644 10.0977 11.2325 9.79312 11.892 9.79312C13.0498 9.79312 13.9883 10.7317 13.9883 11.8894C13.9883 13.0472 13.0498 13.9857 11.892 13.9857C10.7343 13.9857 9.79573 13.0472 9.79573 11.8894C9.79573 11.7111 9.81799 11.538 9.85989 11.3727C9.845 11.3672 9.83027 11.3608 9.81574 11.3535L5.7803 9.33578C5.76564 9.32845 5.75156 9.32043 5.73807 9.31177C5.3538 9.78798 4.76538 10.0926 4.10581 10.0926C2.94806 10.0926 2.00952 9.15405 2.00952 7.99631C2.00952 6.83856 2.94806 5.90002 4.10581 5.90002C4.76538 5.90002 5.3538 6.20463 5.73807 6.68084C5.75156 6.67219 5.76564 6.66416 5.7803 6.65683L9.81574 4.63911C9.83027 4.63185 9.84501 4.62545 9.85989 4.61989C9.81799 4.45461 9.79573 4.2815 9.79573 4.1032C9.79573 2.94545 10.7343 2.00691 11.892 2.00691C13.0498 2.00691 13.9883 2.94545 13.9883 4.1032Z"
    fill="currentColor"
  />
</svg>
