<svg width="16" height="16" viewBox="0 0 16 16" fill="none" xmlns="http://www.w3.org/2000/svg">
  <path
    d="M11.6293 2.60953C13.217 2.60953 14.5043 3.89676 14.5043 5.48453L14.5043 10.5158C14.5041 12.1034 13.217 13.3908 11.6293 13.3908L4.37048 13.3908C2.7828 13.3908 1.49561 12.1034 1.49548 10.5158L1.49548 5.48453C1.49548 3.89676 2.78272 2.60953 4.37048 2.60953L11.6293 2.60953ZM7.24353 6.12418C6.76577 5.8853 6.20377 6.23269 6.20349 6.76675V9.23257C6.20349 9.76682 6.76567 10.115 7.24353 9.87613L9.70935 8.64273C10.2387 8.37781 10.2386 7.62257 9.70935 7.35757L7.24353 6.12418Z"
    fill="#1D3557"
  />
</svg>
