<svg width="24" height="24" viewBox="0 0 24 24" fill="none" xmlns="http://www.w3.org/2000/svg">
<rect width="24" height="24" rx="12" fill="#8FCEFD"/>
<path d="M15.6293 6.60953C17.217 6.60953 18.5043 7.89676 18.5043 9.48453V14.5158C18.5041 16.1034 17.217 17.3908 15.6293 17.3908H8.37048C6.7828 17.3908 5.49561 16.1034 5.49548 14.5158L5.49548 9.48453C5.49548 7.89676 6.78272 6.60953 8.37048 6.60953L15.6293 6.60953ZM11.2435 10.1242C10.7658 9.8853 10.2038 10.2327 10.2035 10.7668V13.2326C10.2035 13.7668 10.7657 14.115 11.2435 13.8761L13.7094 12.6427C14.2387 12.3778 14.2386 11.6226 13.7094 11.3576L11.2435 10.1242Z" fill="#1D3557"/>
</svg>
